<?xml version="1.0" standalone="no"?>
<!DOCTYPE svg PUBLIC "-//W3C//DTD SVG 20010904//EN"
 "http://www.w3.org/TR/2001/REC-SVG-20010904/DTD/svg10.dtd">
<svg version="1.0" xmlns="http://www.w3.org/2000/svg"
 width="500.000000pt" height="500.000000pt" viewBox="0 0 500.000000 500.000000"
 preserveAspectRatio="xMidYMid meet">

<g transform="translate(0.000000,500.000000) scale(0.100000,-0.100000)"
fill="#d5eaee" stroke="none">
<path d="M0 2500 l0 -2500 2500 0 2500 0 0 2500 0 2500 -2500 0 -2500 0 0
-2500z m2523 1393 c-7 -2 -19 -2 -25 0 -7 3 -2 5 12 5 14 0 19 -2 13 -5z
m-200 -10 c-7 -2 -19 -2 -25 0 -7 3 -2 5 12 5 14 0 19 -2 13 -5z m300 0 c-13
-2 -35 -2 -50 0 -16 2 -5 4 22 4 28 0 40 -2 28 -4z m-376 -9 c-3 -3 -12 -4
-19 -1 -8 3 -5 6 6 6 11 1 17 -2 13 -5z m446 -1 c-7 -2 -21 -2 -30 0 -10 3 -4
5 12 5 17 0 24 -2 18 -5z m-506 -9 c-3 -3 -12 -4 -19 -1 -8 3 -5 6 6 6 11 1
17 -2 13 -5z m593 -4 c20 -6 21 -8 5 -8 -11 0 -33 4 -50 8 -27 7 -27 8 -5 8
14 0 36 -4 50 -8z m57 -16 c-3 -3 -12 -4 -19 -1 -8 3 -5 6 6 6 11 1 17 -2 13
-5z m190 -64 c93 -40 257 -132 268 -150 4 -6 -17 5 -47 23 -72 47 -207 114
-298 149 -41 16 -61 26 -45 23 17 -4 71 -24 122 -45z m-501 -74 c26 -20 12
-29 -21 -14 -24 11 -29 10 -41 -7 -18 -24 -18 -30 2 -49 12 -13 20 -14 37 -4
21 11 21 11 2 19 -16 6 -13 8 13 8 30 1 32 -1 22 -19 -31 -59 -110 -39 -110
28 0 43 57 66 96 38z m-266 -15 c0 -5 -9 -11 -21 -14 -12 -3 -18 -10 -15 -15
3 -6 15 -8 26 -5 26 7 26 -14 0 -22 -28 -9 -25 -25 5 -25 34 0 32 -16 -2 -23
-36 -7 -40 -2 -49 61 l-7 52 32 0 c17 0 31 -4 31 -9z m514 -28 c3 -16 8 -46
12 -68 l7 -40 -25 23 c-26 24 -54 29 -60 10 -2 -6 -9 -8 -16 -4 -8 5 0 22 24
56 20 28 40 50 44 50 5 0 11 -12 14 -27z m-1114 -17 c0 -2 -8 -10 -17 -17 -16
-13 -17 -12 -4 4 13 16 21 21 21 13z m374 -31 c9 -14 23 -36 32 -50 14 -22 14
-25 1 -25 -8 0 -25 15 -37 33 l-21 32 6 -42 c8 -52 -11 -58 -46 -15 l-22 27 7
-37 c4 -20 2 -39 -3 -42 -14 -9 -19 3 -27 62 -5 43 -4 52 9 52 8 0 25 -12 36
-27 l20 -28 1 43 c0 49 19 56 44 17z m-414 1 c0 -2 -8 -10 -17 -17 -16 -13
-17 -12 -4 4 13 16 21 21 21 13z m1805 -90 c45 -44 46 -46 6 -11 -25 22 -64
55 -86 73 -33 28 -34 30 -6 11 18 -12 57 -45 86 -73z m-1855 51 c0 -2 -10 -12
-22 -23 l-23 -19 19 23 c18 21 26 27 26 19z m1598 -98 c-14 -39 -7 -44 26 -18
41 33 54 12 29 -46 -11 -26 -24 -45 -29 -43 -10 3 -9 9 2 48 l7 25 -25 -22
c-43 -40 -60 -25 -37 34 l10 28 -28 -26 c-49 -46 -60 -22 -12 27 31 32 46 41
55 33 9 -8 10 -18 2 -40z m-1727 -26 c-5 -10 -24 -31 -42 -48 -29 -27 -29 -25
7 17 42 51 50 58 35 31z m2129 -68 c13 -14 21 -25 18 -25 -2 0 -15 11 -28 25
-13 14 -21 25 -18 25 2 0 15 -11 28 -25z m-2200 -19 c0 -2 -8 -10 -17 -17 -16
-13 -17 -12 -4 4 13 16 21 21 21 13z m2048 -52 c32 -22 30 -69 -4 -91 -24 -15
-29 -15 -53 -2 -32 18 -40 63 -15 90 21 23 42 24 72 3z m135 -231 l-25 -33 46
6 c68 10 58 -12 -11 -24 -32 -6 -61 -7 -65 -3 -5 4 9 31 29 59 24 35 39 49 44
41 4 -7 -3 -27 -18 -46z m-1396 -318 c130 -375 135 -389 143 -374 4 8 26 68
49 134 22 66 70 201 105 300 l63 180 73 3 73 3 -24 -20 -24 -19 -5 -264 -5
-263 -24 65 c-13 36 -32 83 -42 105 -15 32 -19 69 -21 190 l-3 150 -53 -150
c-28 -82 -52 -153 -52 -157 0 -5 19 -8 43 -8 l43 0 66 -172 c37 -95 88 -234
114 -308 26 -74 50 -138 53 -142 4 -4 56 134 116 307 l110 315 70 0 c39 0 65
-4 59 -8 -30 -20 -34 -55 -34 -322 0 -173 4 -279 11 -291 6 -11 20 -24 32 -29
15 -6 -15 -9 -88 -9 -71 0 -102 3 -89 9 12 4 25 17 30 27 10 22 18 571 8 561
-4 -4 -53 -139 -109 -300 l-103 -293 -49 -3 -49 -3 -64 186 c-64 184 -65 185
-95 186 -28 0 -28 1 -7 9 12 5 22 16 22 23 0 15 -48 148 -57 157 -8 8 2 -504
10 -521 5 -9 18 -21 30 -27 18 -9 8 -11 -48 -11 -50 0 -64 3 -48 9 36 15 43
68 42 330 0 182 -3 253 -13 275 -16 35 -11 45 -71 -125 l-41 -115 -50 -3 -49
-3 -95 276 -95 275 -3 -245 c-2 -257 0 -279 41 -295 16 -6 0 -9 -53 -9 -55 0
-69 3 -52 9 39 16 43 49 40 338 l-3 274 -24 19 -24 20 68 -3 68 -3 84 -240z
m-1007 201 c-23 -60 -50 -187 -58 -275 -19 -184 13 -385 88 -563 l28 -68 -31
-15 c-24 -12 -32 -13 -38 -3 -9 14 -44 156 -61 248 -17 96 -14 337 6 450 17
99 64 265 72 257 2 -2 0 -16 -6 -31z m2550 -85 c0 -9 -77 -41 -98 -41 -25 0
-11 18 26 33 43 17 72 21 72 8z m197 -133 c-3 -8 -6 -5 -6 6 -1 11 2 17 5 13
3 -3 4 -12 1 -19z m10 -50 c-3 -7 -5 -2 -5 12 0 14 2 19 5 13 2 -7 2 -19 0
-25z m-147 -2 c0 -8 3 -21 6 -30 4 -9 1 -16 -6 -16 -6 0 -14 9 -17 20 -6 24
-23 16 -23 -11 0 -10 -4 -19 -10 -19 -5 0 -10 7 -10 15 0 8 -7 15 -16 15 -11
0 -14 -6 -9 -21 5 -15 3 -20 -6 -17 -7 2 -16 16 -20 30 -6 24 -3 27 30 36 54
15 81 14 81 -2z m157 -53 c-3 -10 -5 -4 -5 12 0 17 2 24 5 18 2 -7 2 -21 0
-30z m10 -75 c-2 -13 -4 -5 -4 17 -1 22 1 32 4 23 2 -10 2 -28 0 -40z m10
-225 c-2 -38 -3 -7 -3 67 0 74 1 105 3 68 2 -38 2 -98 0 -135z m-217 128 c0
-6 -4 -13 -10 -16 -12 -7 -13 -45 -2 -45 5 0 15 15 23 32 17 39 43 47 59 18
13 -25 4 -60 -16 -60 -17 0 -19 17 -2 22 7 3 9 12 5 22 -9 24 -23 13 -30 -24
-5 -24 -12 -30 -31 -30 -28 0 -41 27 -32 66 6 23 36 35 36 15z m-1053 -117
c-3 -3 -12 -4 -19 -1 -8 3 -5 6 6 6 11 1 17 -2 13 -5z m1260 -141 c-3 -10 -5
-4 -5 12 0 17 2 24 5 18 2 -7 2 -21 0 -30z m-10 -55 c-3 -8 -6 -5 -6 6 -1 11
2 17 5 13 3 -3 4 -12 1 -19z m-2617 -334 c0 -8 4 -14 9 -14 5 0 17 -12 27 -27
17 -27 17 -28 -2 -14 -10 7 -6 2 9 -13 15 -14 26 -26 23 -26 -3 0 0 -13 5 -30
6 -16 15 -27 20 -24 5 3 9 0 9 -5 0 -6 6 -11 14 -11 7 0 16 -14 20 -31 4 -22
10 -30 21 -26 8 4 17 2 20 -4 4 -5 11 -6 17 -3 7 4 8 2 4 -5 -6 -9 -11 -9 -21
-1 -20 16 -25 -10 -7 -37 8 -13 11 -23 7 -23 -4 0 -2 -7 5 -15 12 -14 15 -14
31 1 11 10 19 14 19 9 0 -4 7 -2 15 5 8 7 13 16 10 20 -3 5 -1 11 4 14 7 5 8
-22 1 -31 -2 -2 -3 -6 -4 -10 -1 -5 -10 -19 -20 -33 -11 -15 -16 -18 -12 -7 5
14 2 16 -13 8 -10 -6 -21 -8 -25 -6 -3 3 -4 2 -2 -1 2 -3 6 -4 9 -2 10 7 45
-34 41 -47 -8 -19 21 -13 45 9 11 10 18 26 16 37 -2 10 0 21 4 23 4 3 6 -12 5
-32 -1 -20 -3 -37 -4 -37 -1 0 -3 -13 -4 -28 -2 -16 1 -26 8 -24 6 2 11 13 11
24 0 12 3 24 6 27 3 3 5 -8 5 -26 -1 -17 4 -33 10 -35 7 -2 11 7 9 26 l-2 30
63 -32 c35 -17 62 -33 60 -35 -2 -2 -27 8 -55 22 -28 14 -52 26 -54 26 -4 0
-1 -53 3 -57 1 -2 3 -11 4 -20 1 -10 5 -25 10 -33 7 -12 7 -13 -5 -2 -8 7 -14
23 -14 34 0 12 -5 23 -12 25 -8 3 -11 -3 -8 -17 3 -18 -3 -15 -44 19 -60 50
-163 160 -218 232 -51 67 -143 219 -143 237 0 18 42 32 58 20 6 -6 12 -17 12
-24z m205 -279 c1 0 10 7 21 15 15 11 16 11 7 0 -19 -21 -40 -20 -60 3 l-18
22 24 -20 c13 -11 24 -20 26 -20z m392 9 c-3 -3 -12 -4 -19 -1 -8 3 -5 6 6 6
11 1 17 -2 13 -5z m-312 -31 c-2 -10 -4 -19 -5 -20 -2 -2 -3 -11 -4 -20 -2
-32 -16 -45 -32 -32 -13 10 -11 16 12 41 15 15 24 28 20 28 -4 0 -4 5 -1 10 9
15 14 12 10 -7z m262 -19 c-3 -3 -12 -4 -19 -1 -8 3 -5 6 6 6 11 1 17 -2 13
-5z m-97 -104 c8 -5 11 -10 5 -10 -5 0 -17 5 -25 10 -8 5 -10 10 -5 10 6 0 17
-5 25 -10z m50 -20 c8 -5 11 -10 5 -10 -5 0 -17 5 -25 10 -8 5 -10 10 -5 10 6
0 17 -5 25 -10z m-4 -58 c-5 -4 -106 46 -106 53 0 3 25 -7 55 -22 30 -15 53
-29 51 -31z m-76 -7 c0 -2 -8 -2 -17 1 -12 4 -10 -1 7 -15 21 -18 22 -20 5
-15 l-20 6 20 -17 c11 -9 29 -23 40 -31 27 -20 -3 -6 -37 18 -15 11 -27 22
-27 26 1 4 0 9 -1 12 -1 3 -3 13 -5 22 -3 15 0 16 16 8 10 -6 19 -13 19 -15z
m86 -23 c-5 -4 -86 36 -86 43 0 3 20 -5 45 -17 24 -12 43 -23 41 -26z m44 -78
c0 -2 -9 0 -20 6 -11 6 -20 13 -20 16 0 2 9 0 20 -6 11 -6 20 -13 20 -16z
m1445 10 c-11 -9 -74 -43 -140 -75 -119 -58 -260 -105 -339 -114 -35 -4 -37
-3 -11 4 23 7 25 9 10 11 -11 1 -23 2 -27 1 -4 0 -5 6 -2 14 4 8 9 13 13 11 3
-2 15 0 26 5 17 7 16 8 -8 8 -16 1 -26 5 -22 11 4 6 10 8 15 5 4 -3 13 2 20
10 9 11 35 15 100 15 106 0 212 26 306 74 77 39 89 43 59 20z m-1379 -72 c-5
-4 -66 26 -66 33 0 3 16 -3 35 -12 19 -9 33 -18 31 -21z"/>
<path d="M2741 3636 c-9 -10 -8 -15 4 -20 10 -4 15 1 15 14 0 24 -4 25 -19 6z"/>
<path d="M3354 3285 c-10 -25 4 -45 30 -45 25 0 39 20 30 45 -4 8 -17 15 -30
15 -14 0 -27 -7 -30 -15z"/>
<path d="M1515 1509 c-3 -4 2 -6 10 -5 21 3 28 13 10 13 -9 0 -18 -4 -20 -8z"/>
<path d="M1575 1430 c-10 -11 -23 -17 -29 -13 -6 3 0 -6 13 -20 14 -15 25 -27
26 -27 1 0 1 12 0 28 -1 15 2 33 8 40 15 19 2 14 -18 -8z m2 -25 c0 -8 -4 -12
-9 -9 -5 3 -6 10 -3 15 9 13 12 11 12 -6z"/>
<path d="M1606 1372 c-3 -5 1 -15 8 -21 11 -10 14 -9 12 3 -3 21 -13 29 -20
18z"/>
<path d="M1551 1476 c-8 -10 -9 -16 -1 -21 5 -3 10 -5 11 -3 4 18 7 38 4 38
-1 0 -8 -6 -14 -14z"/>
</g>
</svg>
